<svg width="37" height="35" xmlns="http://www.w3.org/2000/svg">
 <!-- Created with Method Draw - http://github.com/duopixel/Method-Draw/ -->

 <g>
  <title>background</title>
  <rect fill="#ffffff" id="canvas_background" height="37" width="39" y="-1" x="-1"/>
 </g>
 <g>
  <title>Layer 1</title>
  <ellipse stroke="#0000bf" ry="15" rx="16.500001" id="svg_8" cy="18" cx="18" stroke-width="1.5" fill="#0000ff"/>
  <path stroke="#0000bf" transform="rotate(0.26176825165748596 157.99534606933466,85.0805816650417) " id="svg_9" d="m156.862456,89.439065l3.951335,-2.692007l-7.639709,0l-7.639686,0l0,-1.666478l0,-1.666478l7.552042,0c4.15362,0 7.552042,-0.084465 7.552042,-0.187699c0,-0.103234 -1.65354,-1.314634 -3.674534,-2.692002l-3.674551,-2.504308l3.396405,0l3.396394,0l5.187062,3.528623l5.187057,3.528618l-5.197008,3.521864l-5.197008,3.521869l-3.575588,0l-3.575594,0l3.951341,-2.692007l0,0l0,0l0,0.000005z" fill-opacity="null" stroke-width="1.5" fill="#fff"/>
  <path id="svg_3" d="m27.500001,16.302284l-2.592279,-3.102461l0,-7.409634l-2.222316,0l0,4.749947l-5.185405,-6.205936l-10.000001,11.968084l2.38063,-0.067885l0,12.099802l15.132917,0l0,-12.031916l2.486455,0zm-10.000001,10.301347l-4.938199,0l0,-7.092498l4.938199,0l0,7.092498zm4.797664,-3.039642l-3.245005,0l0,-4.095411l3.245005,0l0,4.095411z" stroke-opacity="null" stroke-width="1.5" stroke="#0000bf" fill="#ffffff"/>
 </g>
</svg>